<svg xmlns="http://www.w3.org/2000/svg" xmlns:xlink="http://www.w3.org/1999/xlink" width="500" zoomAndPan="magnify" viewBox="0 0 375 374.999991" height="500" preserveAspectRatio="xMidYMid meet" version="1.0"><defs><clipPath id="708d8c4ae0"><path d="M 39.535156 31.132812 L 335.785156 31.132812 L 335.785156 342 L 39.535156 342 Z M 39.535156 31.132812 " clip-rule="nonzero"/></clipPath></defs><g clip-path="url(#708d8c4ae0)"><path fill="#7aa450" d="M 268.675781 38.609375 C 188.882812 52.023438 63.460938 89.078125 42.542969 190.242188 C 40.664062 199.3125 39.621094 208.894531 39.53125 219.023438 L 66.949219 213.792969 L 75.839844 204.582031 L 147.921875 129.898438 C 145.898438 126.515625 144.839844 122.488281 145.132812 118.195312 C 145.828125 108.15625 154.046875 100.09375 164.097656 99.578125 C 175.976562 98.976562 185.742188 108.710938 185.183594 120.578125 C 184.71875 130.503906 176.882812 138.703125 166.988281 139.589844 C 163.363281 139.917969 159.914062 139.269531 156.871094 137.886719 L 89.300781 207.894531 L 72.929688 224.855469 L 39.875 231.164062 C 40.765625 245.191406 43.40625 260.203125 48.046875 276.257812 C 53.550781 295.304688 78.597656 299.625 90.171875 283.527344 L 141.550781 212.054688 C 140.890625 211.207031 140.296875 210.296875 139.78125 209.347656 C 138.097656 206.257812 137.199219 202.683594 137.363281 198.878906 C 137.808594 188.628906 146.109375 180.261719 156.355469 179.742188 C 167.640625 179.164062 177.015625 187.921875 177.449219 198.972656 C 177.464844 199.316406 177.46875 199.664062 177.464844 200.011719 C 177.34375 210.539062 168.929688 219.296875 158.417969 219.8125 C 155.957031 219.933594 153.585938 219.609375 151.382812 218.914062 L 92.84375 300.34375 C 82.835938 314.261719 90.40625 333.898438 107.171875 337.457031 C 137.203125 343.824219 161.769531 342.6875 182.015625 336.003906 L 173.28125 284.160156 L 220.316406 177.085938 C 219.28125 176.203125 218.339844 175.210938 217.503906 174.136719 C 214.636719 170.46875 213.015625 165.777344 213.292969 160.703125 C 213.832031 150.683594 221.886719 142.496094 231.898438 141.804688 C 236.28125 141.503906 240.390625 142.609375 243.816406 144.71875 C 249.558594 148.25 253.382812 154.585938 253.382812 161.816406 C 253.382812 172.894531 244.398438 181.878906 233.320312 181.878906 C 232.65625 181.878906 231.996094 181.84375 231.347656 181.78125 L 185.699219 285.703125 L 193.40625 331.464844 C 257.910156 301.042969 273.257812 208.640625 287.5 136.226562 C 301.242188 66.332031 335.441406 31.148438 335.441406 31.148438 C 335.441406 31.148438 307.441406 32.089844 268.675781 38.609375 " fill-opacity="1" fill-rule="nonzero"/></g><path fill="#7aa450" d="M 233.320312 172.84375 C 239.410156 172.84375 244.347656 167.910156 244.347656 161.816406 C 244.347656 157.589844 241.972656 153.921875 238.480469 152.070312 C 236.941406 151.253906 235.183594 150.789062 233.320312 150.789062 C 227.230469 150.789062 222.292969 155.726562 222.292969 161.816406 C 222.292969 164.117188 222.996094 166.25 224.199219 168.015625 C 226.183594 170.929688 229.527344 172.84375 233.320312 172.84375 " fill-opacity="1" fill-rule="nonzero"/><path fill="#7aa450" d="M 168.078125 202.566406 C 168.3125 201.675781 168.433594 200.738281 168.433594 199.777344 C 168.433594 193.683594 163.496094 188.746094 157.40625 188.746094 C 151.3125 188.746094 146.375 193.683594 146.375 199.777344 C 146.375 202.851562 147.636719 205.636719 149.671875 207.632812 C 151.660156 209.59375 154.390625 210.804688 157.40625 210.804688 C 162.53125 210.804688 166.84375 207.304688 168.078125 202.566406 " fill-opacity="1" fill-rule="nonzero"/><path fill="#7aa450" d="M 165.144531 130.644531 C 171.234375 130.644531 176.175781 125.707031 176.175781 119.613281 C 176.175781 113.523438 171.234375 108.585938 165.144531 108.585938 C 159.054688 108.585938 154.117188 113.523438 154.117188 119.613281 C 154.117188 125.707031 159.054688 130.644531 165.144531 130.644531 " fill-opacity="1" fill-rule="nonzero"/></svg>