<svg xmlns="http://www.w3.org/2000/svg" xmlns:xlink="http://www.w3.org/1999/xlink" width="500" zoomAndPan="magnify" viewBox="0 0 375 374.999991" height="500" preserveAspectRatio="xMidYMid meet" version="1.0"><defs><clipPath id="2d7d6d25dd"><path d="M 10.078125 0 L 364.828125 0 L 364.828125 373 L 10.078125 373 Z M 10.078125 0 " clip-rule="nonzero"/></clipPath></defs><g clip-path="url(#2d7d6d25dd)"><path fill="#7aa450" d="M 284.839844 8.96875 C 189.160156 25.054688 38.765625 69.488281 13.679688 190.792969 C 11.429688 201.671875 10.175781 213.160156 10.074219 225.308594 L 42.945312 219.035156 L 53.609375 207.988281 L 140.046875 118.4375 C 137.617188 114.378906 136.347656 109.550781 136.699219 104.402344 C 137.53125 92.363281 147.390625 82.695312 159.441406 82.078125 C 173.6875 81.355469 185.394531 93.027344 184.726562 107.257812 C 184.167969 119.160156 174.769531 128.992188 162.90625 130.058594 C 158.558594 130.449219 154.425781 129.671875 150.777344 128.015625 L 69.753906 211.960938 L 50.121094 232.300781 L 10.480469 239.863281 C 11.554688 256.683594 14.71875 274.683594 20.28125 293.9375 C 26.882812 316.773438 56.914062 321.953125 70.792969 302.652344 L 132.402344 216.953125 C 131.609375 215.929688 130.902344 214.84375 130.28125 213.703125 C 128.261719 210 127.183594 205.710938 127.382812 201.152344 C 127.917969 188.859375 137.871094 178.828125 150.15625 178.199219 C 163.6875 177.511719 174.929688 188.011719 175.449219 201.261719 C 175.46875 201.675781 175.472656 202.089844 175.46875 202.507812 C 175.324219 215.128906 165.234375 225.632812 152.628906 226.25 C 149.675781 226.394531 146.835938 226.007812 144.191406 225.175781 L 73.996094 322.820312 C 62 339.507812 71.074219 363.054688 91.179688 367.320312 C 127.191406 374.957031 156.648438 373.589844 180.925781 365.578125 L 170.453125 303.414062 L 226.851562 175.015625 C 225.609375 173.960938 224.480469 172.769531 223.480469 171.480469 C 220.042969 167.082031 218.097656 161.457031 218.429688 155.371094 C 219.078125 143.359375 228.738281 133.539062 240.738281 132.710938 C 246 132.351562 250.921875 133.675781 255.035156 136.207031 C 261.917969 140.441406 266.503906 148.039062 266.503906 156.707031 C 266.503906 169.992188 255.730469 180.761719 242.445312 180.761719 C 241.648438 180.761719 240.859375 180.722656 240.082031 180.644531 L 185.34375 305.261719 L 194.582031 360.136719 C 271.933594 323.65625 290.335938 212.855469 307.414062 126.023438 C 323.894531 42.210938 364.902344 0.0234375 364.902344 0.0234375 C 364.902344 0.0234375 331.324219 1.148438 284.839844 8.96875 " fill-opacity="1" fill-rule="nonzero"/></g><path fill="#7aa450" d="M 242.445312 169.933594 C 249.75 169.933594 255.671875 164.015625 255.671875 156.707031 C 255.671875 151.640625 252.820312 147.242188 248.636719 145.019531 C 246.789062 144.039062 244.683594 143.484375 242.445312 143.484375 C 235.144531 143.484375 229.222656 149.40625 229.222656 156.707031 C 229.222656 159.464844 230.066406 162.023438 231.507812 164.144531 C 233.890625 167.636719 237.898438 169.933594 242.445312 169.933594 " fill-opacity="1" fill-rule="nonzero"/><path fill="#7aa450" d="M 164.210938 205.570312 C 164.492188 204.5 164.640625 203.382812 164.640625 202.226562 C 164.640625 194.917969 158.71875 189 151.414062 189 C 144.113281 189 138.191406 194.917969 138.191406 202.226562 C 138.191406 205.914062 139.703125 209.25 142.140625 211.648438 C 144.527344 214 147.800781 215.449219 151.414062 215.449219 C 157.5625 215.449219 162.730469 211.253906 164.210938 205.570312 " fill-opacity="1" fill-rule="nonzero"/><path fill="#7aa450" d="M 160.699219 119.328125 C 168 119.328125 173.921875 113.40625 173.921875 106.101562 C 173.921875 98.800781 168 92.878906 160.699219 92.878906 C 153.394531 92.878906 147.472656 98.800781 147.472656 106.101562 C 147.472656 113.40625 153.394531 119.328125 160.699219 119.328125 " fill-opacity="1" fill-rule="nonzero"/></svg>